nRows=59
nColumns=19
inDegrees=yes
endheader
time	ground_force_vx	ground_force_vy	ground_force_vz	ground_force_px	ground_force_py	ground_force_pz	1_ground_force_vx	1_ground_force_vy	1_ground_force_vz	1_ground_force_px	1_ground_force_py	1_ground_force_pz	ground_torque_x	ground_torque_y	ground_torque_z	1_ground_torque_x	1_ground_torque_y	1_ground_torque_z
14.127	-0.036067	0.180337	0.036067	0.300000012	0	0.609999999	0.126236	-0.072135	0	0.300000012	0	0.2050000005	0.002364	-0.007213	-0.002364	-0	0.025247	0
14.128	-0.036067	0.126236	0.036067	0.300000012	0	0.609999999	0.14427	-0.108202	-0.036067	0.300000012	0	0.2050000005	0.004381	-0.014427	-0.004381	-0	0.034625	0
14.129	-0	0.108202	0.054101	0.300000012	0	0.609999999	0.14427	-0.072135	-0.018034	0.300000012	0	0.2050000005	0.006322	-0.006492	-0.006322	-0	0.031018	0
14.13	0.018034	0.126236	0.072135	0.300000012	0	0.609999999	0.14427	-0.054101	0.018034	0.300000012	0	0.2050000005	0.006247	-0.007935	-0.006247	-0	0.023805	0
14.131	-0.036067	0.108202	0.072135	0.300000012	0	0.609999999	0.14427	-0.090169	0.018034	0.300000012	0	0.2050000005	0.008442	0	-0.008442	-0	0.031018	0
14.132	-0.018034	0.108202	0.036067	0.300000012	0	0.609999999	0.126236	-0.162303	0.018034	0.300000012	0	0.2050000005	0.012831	0.000721	-0.012831	-0	0.028854	0
14.133	-0	0.072135	0.018034	0.300000012	0	0.609999999	0.14427	-0.14427	-0.018034	0.300000012	0	0.2050000005	0.00323	-0.005049	-0.00323	-0	0.033903	0
14.134	-0	0.054101	0	0.300000012	0	0.609999999	0.162303	-0.14427	-0.018034	0.300000012	0	0.2050000005	0.004532	-0.012984	-0.004532	-0	0.038953	0
14.135	-0	0.162303	0	0.300000012	0	0.609999999	0.126236	-0.090169	0	0.300000012	0	0.2050000005	0.001934	-0.012984	-0.001934	-0	0.04256	0
14.136	0.018034	0.14427	0	0.300000012	0	0.609999999	0.14427	-0.090169	0	0.300000012	0	0.2050000005	0.003733	-0.007935	-0.003733	-0	0.040396	0
14.137	0.036067	0.180337	0.018034	0.300000012	0	0.609999999	0.14427	-0.054101	0	0.300000012	0	0.2050000005	0.007111	-0.013706	-0.007111	-0	0.028854	0
14.138	0.036067	0.270506	0.018034	0.300000012	0	0.609999999	0.126236	-0.054101	0.036067	0.300000012	0	0.2050000005	0.001223	-0.013706	-0.001223	-0	0.033903	0
14.139	-0	0.216405	0.036067	0.300000012	0	0.609999999	0.14427	-0.054101	0.036067	0.300000012	0	0.2050000005	0.002435	-0.010099	-0.002435	-0	0.031739	0
14.14	0.036067	0.180337	0.054101	0.300000012	0	0.609999999	0.126236	-0.054101	-0.018034	0.300000012	0	0.2050000005	0.001662	-0.013706	-0.001662	-0	0.03751	0
14.141	0.036067	0.180337	0.054101	0.300000012	0	0.609999999	0.14427	-0.108202	-0.036067	0.300000012	0	0.2050000005	0.005783	-0.005049	-0.005783	-0	0.036067	0
14.142	-0	0.108202	0.072135	0.300000012	0	0.609999999	0.126236	-0.090169	-0.018034	0.300000012	0	0.2050000005	0.004536	-0.008656	-0.004536	-0	0.034625	0
14.143	-0	0.072135	0.036067	0.300000012	0	0.609999999	0.126236	-0.162303	-0.054101	0.300000012	0	0.2050000005	0.002365	-0.01587	-0.002365	-0	0.034625	0
14.144	-0.018034	0.054101	0.018034	0.300000012	0	0.609999999	0.14427	-0.216405	-0.036067	0.300000012	0	0.2050000005	0.019289	-0.010099	-0.019289	-0	0.028854	0
14.145	0.018034	0.018034	0.018034	0.300000012	0	0.609999999	0.126236	-0.180337	-0.018034	0.300000012	0	0.2050000005	0.18244	-0.010099	-0.18244	-0	0.034625	0
14.146	0.018034	0.108202	0.018034	0.300000012	0	0.609999999	0.162303	-0.180337	0	0.300000012	0	0.2050000005	0.007219	-0.014427	-0.007219	-0	0.031018	0
14.147	0.018034	0.072135	0	0.300000012	0	0.609999999	0.126236	-0.162303	-0.018034	0.300000012	0	0.2050000005	0.008629	-0.01082	-0.008629	-0	0.034625	0
14.148	0.018034	0.018034	-0.018034	0.300000012	0	0.609999999	0.126236	-0.216405	-0.054101	0.300000012	0	0.2050000005	-0.520956	-0.014427	0.520956	-0	0.03751	0
14.149	-0	0.108202	0	0.300000012	0	0.609999999	0.14427	-0.270506	-0.054101	0.300000012	0	0.2050000005	0.014579	-0.012984	-0.014579	-0	0.028133	0
14.15	0.018034	0.126236	-0.018034	0.300000012	0	0.609999999	0.126236	-0.270506	-0.036067	0.300000012	0	0.2050000005	0.007764	-0.007213	-0.007764	-0	0.033903	0
14.151	0.018034	0.108202	0.018034	0.300000012	0	0.609999999	0.126236	-0.198371	0	0.300000012	0	0.2050000005	0.006696	-0.011542	-0.006696	-0	0.02669	0
14.152	-0	0.018034	0.036067	0.300000012	0	0.609999999	0.090169	-0.14427	0.018034	0.300000012	0	0.2050000005	-299.295563	-0.012984	299.295563	-0	0.030297	0
14.153	-0.018034	0.018034	0.036067	0.300000012	0	0.609999999	0.090168	-0.108202	0	0.300000012	0	0.2050000005	0.085524	-0.013706	-0.085524	-0	0.035346	0
14.154	-0	0.054101	0.036067	0.300000012	0	0.609999999	0.108202	-0.054101	-0.018034	0.300000012	0	0.2050000005	0.000349	-0.01587	-0.000349	-0	0.036789	0
14.155	0.018034	0.054101	0.036067	0.300000012	0	0.609999999	0.108202	-0.072135	0.018034	0.300000012	0	0.2050000005	0.013652	-0.006492	-0.013652	-0	0.036789	0
14.156	-0.036067	0.054101	0.036067	0.300000012	0	0.609999999	0.14427	-0.126236	0.036067	0.300000012	0	0.2050000005	0.039878	-0.004328	-0.039878	-0	0.033182	0
14.157	-0.018034	0.054101	0.036067	0.300000012	0	0.609999999	0.108202	-0.180337	0.036067	0.300000012	0	0.2050000005	0.000997	-0.006492	-0.000997	-0	0.036067	0
14.158	0.018034	0.108202	0.018034	0.300000012	0	0.609999999	0.072135	-0.198371	0.018034	0.300000012	0	0.2050000005	0.008114	-0.007213	-0.008114	-0	0.032461	0
14.159	-0	0.072135	0.018034	0.300000012	0	0.609999999	0.072135	-0.198371	0	0.300000012	0	0.2050000005	0.00323	-0.009378	-0.00323	-0	0.028854	0
14.16	-0.018034	0.126236	0.036067	0.300000012	0	0.609999999	0.108202	-0.14427	0	0.300000012	0	0.2050000005	-0.003375	-0.01082	0.003375	-0	0.031739	0
14.161	-0	0.162303	0.018034	0.300000012	0	0.609999999	0.108202	-0.126236	0.018034	0.300000012	0	0.2050000005	-0.002731	-0.005049	0.002731	-0	0.032461	0
14.162	-0.018034	0.090169	0	0.300000012	0	0.609999999	0.090168	-0.162303	0.018034	0.300000012	0	0.2050000005	0.001933	-0.01082	-0.001933	-0	0.041838	0
14.163	-0	0.126236	0.018034	0.300000012	0	0.609999999	0.108202	-0.162303	-0.018034	0.300000012	0	0.2050000005	0.001124	-0.012263	-0.001124	-0	0.036789	0
14.164	-0	0.108202	0	0.300000012	0	0.609999999	0.108202	-0.162303	-0.018034	0.300000012	0	0.2050000005	-0	-0.008656	0	-0	0.029575	0
14.165	0.018034	0.14427	0.018034	0.300000012	0	0.609999999	0.108202	-0.162303	-0.036067	0.300000012	0	0.2050000005	0.007428	-0.010099	-0.007428	-0	0.03751	0
14.166	0.018034	0.162303	0	0.300000012	0	0.609999999	0.090169	-0.108202	0.018034	0.300000012	0	0.2050000005	0.006385	-0.009378	-0.006385	-0	0.036067	0
14.167	-0	0.108202	-0.018034	0.300000012	0	0.609999999	0.108202	-0.126236	0.036067	0.300000012	0	0.2050000005	0.000776	-0.012263	-0.000776	-0	0.025969	0
14.168	-0	0.108202	0.018034	0.300000012	0	0.609999999	0.090168	-0.108202	0	0.300000012	0	0.2050000005	0.00333	-0.012263	-0.00333	-0	0.023804	0
14.169	0.018034	0.198371	0.054101	0.300000012	0	0.609999999	0.108202	-0.090169	0.018034	0.300000012	0	0.2050000005	-0.004491	-0.002885	0.004491	-0	0.025247	0
14.17	-0	0.162303	0.036067	0.300000012	0	0.609999999	0.162303	-0.054101	0	0.300000012	0	0.2050000005	-0.003533	-0.001443	0.003533	-0	0.02669	0
14.171	0.036067	0.108202	0.018034	0.300000012	0	0.609999999	0.126236	-0.090169	0	0.300000012	0	0.2050000005	-0.005256	-0.009378	0.005256	-0	0.02669	0
14.172	0.018034	0.180337	0.018034	0.300000012	0	0.609999999	0.126236	-0.14427	0	0.300000012	0	0.2050000005	-0.009851	-0.011542	0.009851	-0	0.019476	0
14.173	-0	0.126236	0.018034	0.300000012	0	0.609999999	0.14427	-0.14427	0	0.300000012	0	0.2050000005	-0.006514	-0.005049	0.006514	-0	0.028854	0
14.174	0.018034	0.162303	0.036067	0.300000012	0	0.609999999	0.090168	-0.072135	0	0.300000012	0	0.2050000005	-0.003794	0.000721	0.003794	-0	0.031018	0
14.175	0.018034	0.198371	0.036067	0.300000012	0	0.609999999	0.108202	-0.108202	-0.018034	0.300000012	0	0.2050000005	-0.003919	-0.006492	0.003919	-0	0.029575	0
14.176	0.018034	0.108202	0.018034	0.300000012	0	0.609999999	0.126236	-0.14427	0	0.300000012	0	0.2050000005	0.003045	-0.005771	-0.003045	-0	0.035346	0
14.177	0.018034	0.180337	0	0.300000012	0	0.609999999	0.108202	-0.14427	-0.018034	0.300000012	0	0.2050000005	-0	-0.002164	0	-0	0.029575	0
14.178	0.018034	0.108202	0.036067	0.300000012	0	0.609999999	0.14427	-0.090169	0	0.300000012	0	0.2050000005	-0.01022	-0.009378	0.01022	-0	0.033182	0
14.179	-0	0.018034	0.036067	0.300000012	0	0.609999999	0.108202	-0.054101	0	0.300000012	0	0.2050000005	0.071143	-0.011542	-0.071143	-0	0.028854	0
14.18	-0	0.108202	0.036067	0.300000012	0	0.609999999	0.14427	-0.126236	0	0.300000012	0	0.2050000005	-0.001549	-0.004328	0.001549	-0	0.017312	0
14.181	0.018034	0.072135	0.054101	0.300000012	0	0.609999999	0.126236	-0.126236	0	0.300000012	0	0.2050000005	-0.003689	-0.002885	0.003689	-0	0.031018	0
14.182	0.018034	0.072135	0.036067	0.300000012	0	0.609999999	0.090169	-0.072135	0	0.300000012	0	0.2050000005	0.002193	-0.01082	-0.002193	-0	0.033903	0
14.183	0.036067	0.162303	0.054101	0.300000012	0	0.609999999	0.14427	-0.108202	0.018034	0.300000012	0	0.2050000005	-0.000441	-0.016591	0.000441	-0	0.028133	0
14.184	0.054101	0.108202	0.018034	0.300000012	0	0.609999999	0.162303	-0.090169	0.018034	0.300000012	0	0.2050000005	0.002929	-0.011542	-0.002929	-0	0.023083	0
14.185	0.054101	0.162303	0.018034	0.300000012	0	0.609999999	0.162303	-0.108202	-0.018034	0.300000012	0	0.2050000005	0.001102	-0.011542	-0.001102	-0	0.023083	0
